<svg xmlns="http://www.w3.org/2000/svg" xmlns:ev="http://www.w3.org/2001/xml-events" xmlns:xlink="http://www.w3.org/1999/xlink" width="793.701" height="1122.518" class="st16" color-interpolation-filters="sRGB" viewBox="0 0 595.276 841.89" xml:space="preserve"><style type="text/css">.st1{fill:#ebf1df;stroke:#50632a;stroke-dasharray:5.25,3.75;stroke-linecap:round;stroke-linejoin:round;stroke-width:.75}.st2{fill:#000;font-family:Calibri;font-size:1.00001em}.st3,.st4{stroke-width:.75;stroke-linecap:round;stroke-linejoin:round}.st3{fill:none;stroke:#000;stroke-dasharray:5.25,3.75,0,3.75}.st4{fill:#9dbb61}.st4,.st5,.st6{stroke:#000}.st5,.st6,.st7{stroke-linecap:round;stroke-linejoin:round}.st5{fill:none;stroke-dasharray:5.25,3.75;stroke-width:.75}.st6{stroke-width:.24}.st7{fill:none;stroke:none;stroke-width:.75}.st8{font-size:1em}.st10,.st9{stroke:#000;stroke-linecap:round;stroke-linejoin:round}.st9{fill:#92cddc;stroke-width:.75}.st10{marker-end:url(#mrkr1-39);marker-start:url(#mrkr1-37);stroke-width:1}.st11{fill:#000;fill-opacity:1;stroke:#000;stroke-opacity:1;stroke-width:.28409090909091}.st12,.st13{stroke:#000;stroke-linecap:round;stroke-linejoin:round;stroke-width:.75}.st12{fill:#fff2cc;stroke-dasharray:11.25,6.75}.st13{fill:#fee599}.st14{fill:#000;font-family:Calibri;font-size:.666664em}.st15{fill:#ccc2d9;stroke:#000;stroke-linecap:round;stroke-linejoin:round;stroke-width:.75}.st16{fill:none;fill-rule:evenodd;font-size:12px;overflow:visible;stroke-linecap:square;stroke-miterlimit:3}</style><defs id="Markers"><g id="lend1"><path d="M 1 -1 L 0 0 L 1 1" style="stroke-linecap:round;stroke-linejoin:round;fill:none"/></g><marker id="mrkr1-37" class="st11" markerUnits="strokeWidth" orient="auto" overflow="visible"><use transform="scale(3.52)" xlink:href="#lend1"/></marker><marker id="mrkr1-39" class="st11" markerUnits="strokeWidth" orient="auto" overflow="visible"><use transform="scale(-3.52,-3.52)" xlink:href="#lend1"/></marker></defs><g><title>Page-1</title><g id="shape54-1" transform="translate(28.3465,-328.819)"><title>Sheet.54</title><desc>Enclave</desc><path d="M0 841.89 L548.93 841.89 L548.93 453.54 L0 453.54 L0 841.89 Z" class="st1"/><text x="4" y="833.43" class="st2">Enclave</text></g><g id="shape62-4" transform="translate(39.189,-357.165)"><title>Sheet.62</title><desc>Enclave Linux port</desc><path d="M0 841.89 L527.24 841.89 L527.24 579.12 L0 579.12 L0 841.89 Z" class="st3"/><text x="1.66" y="836.92" class="st2">Enclave Linux port</text></g><g id="shape1-7" transform="translate(141.732,-651.969)"><title>Sheet.1</title><desc>Unmodified application</desc><rect width="154.37" height="28.346" x="0" y="813.543" class="st4"/><text x="19.95" y="831.32" class="st2">Unmodified application</text></g><g id="shape2-10" transform="translate(306.142,-651.969)"><title>Sheet.2</title><desc>Unmodified library</desc><rect width="117.52" height="28.346" x="0" y="813.543" class="st4"/><text x="12.89" y="831.32" class="st2">Unmodified library</text></g><g id="shape3-13" transform="translate(433.701,-651.969)"><title>Sheet.3</title><desc>Unmodified library...</desc><rect width="117.52" height="28.346" x="0" y="813.543" class="st4"/><text x="8.35" y="831.32" class="st2">Unmodified library...</text></g><g id="shape4-16" transform="translate(127.559,-637.795)"><title>Sheet.4</title><desc>Unmodified application</desc><path d="M0 841.89 L439.37 841.89 L439.37 785.2 L0 785.2 L0 841.89 Z" class="st5"/><text x="4" y="839.19" class="st2">Unmodified application</text></g><g id="group14-19" transform="translate(28.3465,-623.622)"><title>Sheet.14</title><g id="shape11-20" transform="translate(89.7165,0)"><title>Left Parenthesis</title><path d="M28.35 841.89 A30.251 11.3441 0 0 1 0 833.39 L0 765.35 A30.251 11.3441 0 0 1 28.35 756.85" class="st6"/></g><g id="shape12-23" transform="translate(-7.99361E-15,-33.2889)"><title>Sheet.12</title><desc>Loaded from container filesystem</desc><rect width="88.472" height="18.462" x="0" y="823.428" class="st7"/><text x="22.3" y="821.86" class="st2">Loaded from <tspan x="37.78" class="st8" dy="1.2em">container </tspan><tspan x="34.94" class="st8" dy="1.2em">filesystem</tspan></text></g></g><g id="shape15-28" transform="translate(141.732,-586.772)"><title>Sheet.15</title><desc>Modified libc (currently musl)</desc><rect width="411.024" height="28.346" x="0" y="813.543" class="st9"/><text x="133.41" y="831.32" class="st2">Modified libc (currently musl)</text></g><g id="shape16-31" transform="translate(1097.01,189.921) rotate(90)"><title>Sheet.16</title><path d="M0 841.89 L36.85 841.89" class="st10"/></g><g id="shape17-40" transform="translate(1210.39,189.921) rotate(90)"><title>Sheet.17</title><path d="M0 841.89 L36.85 841.89" class="st10"/></g><g id="shape18-47" transform="translate(1337.95,189.921) rotate(90)"><title>Sheet.18</title><path d="M0 841.89 L36.85 841.89" class="st10"/></g><g id="group20-54" transform="translate(28.3465,-439.37)"><title>Sheet.20</title><g id="shape21-55" transform="translate(89.7165,0)"><title>Left Parenthesis</title><path d="M28.35 841.89 A30.251 17.0162 0 0 1 0 829.13 L0 727.09 A30.251 17.0162 0 0 1 28.35 714.33" class="st6"/></g><g id="shape22-58" transform="translate(-7.99361E-15,-49.9334)"><title>Sheet.22</title><desc>Linux Kernel Library</desc><rect width="88.472" height="27.692" x="0" y="814.197" class="st7"/><text x="24.74" y="824.44" class="st2">Linux Kernel <tspan x="50.82" class="st8" dy="1.2em">Library</tspan></text></g></g><g id="shape23-62" transform="translate(141.732,-538.583)"><title>Sheet.23</title><desc>System call layer (implemented as function calls)</desc><path d="M0 841.89 L411.02 841.89 L411.02 827.72 L0 827.72 L0 841.89 Z" class="st12"/><text x="87.05" y="838.4" class="st2">System call layer (implemented as function calls)</text></g><g id="shape24-65" transform="translate(141.732,-515.906)"><title>Sheet.24</title><desc>Page Cache</desc><rect width="97.193" height="14.173" x="0" y="827.717" class="st13"/><text x="20.71" y="838.4" class="st2">Page Cache</text></g><g id="shape25-68" transform="translate(1097.01,255.118) rotate(90)"><title>Sheet.25</title><path d="M0 841.89 L34.02 841.89" class="st10"/></g><g id="shape26-75" transform="translate(1210.39,255.118) rotate(90)"><title>Sheet.26</title><path d="M0 841.89 L34.02 841.89" class="st10"/></g><g id="shape27-82" transform="translate(1337.95,255.118) rotate(90)"><title>Sheet.27</title><path d="M0 841.89 L34.02 841.89" class="st10"/></g><g id="shape28-89" transform="translate(243.508,-515.906)"><title>Sheet.28</title><desc>Work Queues</desc><rect width="97.193" height="14.173" x="0" y="827.717" class="st13"/><text x="15.26" y="838.4" class="st2">Work Queues</text></g><g id="shape29-92" transform="translate(141.732,-489.685)"><title>Sheet.29</title><desc>Crypto</desc><rect width="97.193" height="14.173" x="0" y="827.717" class="st13"/><text x="32.26" y="838.4" class="st2">Crypto</text></g><g id="shape30-95" transform="translate(243.508,-489.685)"><title>Sheet.30</title><desc>Other subsystems</desc><rect width="97.193" height="14.173" x="0" y="827.717" class="st13"/><text x="4.83" y="838.4" class="st2">Other subsystems</text></g><g id="shape32-98" transform="translate(354.331,-514.488)"><title>Sheet.32</title><desc>Network stack</desc><rect width="97.193" height="14.173" x="0" y="827.717" class="st13"/><text x="13.6" y="838.4" class="st2">Network stack</text></g><g id="shape33-101" transform="translate(456.106,-514.488)"><title>Sheet.33</title><desc>Filesystem stack</desc><rect width="97.193" height="14.173" x="0" y="827.717" class="st13"/><text x="9.05" y="838.4" class="st2">Filesystem stack</text></g><g id="shape35-104" transform="translate(354.331,-488.268)"><title>Sheet.35</title><desc>Wireguard</desc><rect width="97.193" height="14.173" x="0" y="827.717" class="st13"/><text x="22.71" y="838.4" class="st2">Wireguard</text></g><g id="shape36-107" transform="translate(456.106,-488.268)"><title>Sheet.36</title><desc>Device mapper</desc><rect width="97.193" height="14.173" x="0" y="827.717" class="st13"/><text x="11.91" y="838.4" class="st2">Device mapper</text></g><g id="shape37-110" transform="translate(351.496,-484.724)"><title>Sheet.37</title><desc>Encryption and integrity protection</desc><path d="M0 841.89 L204.09 841.89 L204.09 816.38 L0 816.38 L0 841.89 Z" class="st5"/><text x="4" y="822.09" class="st14">Encryption and integrity protection</text></g><g id="shape39-113" transform="translate(470.132,-446.457)"><title>Sheet.39</title><desc>Block driver</desc><rect width="82.624" height="14.173" x="0" y="827.717" class="st13"/><text x="12.48" y="838.4" class="st2">Block driver</text></g><g id="shape40-116" transform="translate(383.885,-446.457)"><title>Sheet.40</title><desc>Network driver</desc><rect width="82.624" height="14.173" x="0" y="827.717" class="st13"/><text x="4.41" y="838.4" class="st2">Network driver</text></g><g id="shape41-119" transform="translate(297.638,-446.457)"><title>Sheet.41</title><desc>Console driver</desc><rect width="82.624" height="14.173" x="0" y="827.717" class="st13"/><text x="6.16" y="838.4" class="st2">Console driver</text></g><g id="shape42-122" transform="translate(1247.24,353.622) rotate(90)"><title>Sheet.42</title><path d="M0 841.89 L27.64 841.89" class="st10"/></g><g id="shape43-129" transform="translate(1343.62,353.622) rotate(90)"><title>Sheet.43</title><path d="M0 841.89 L27.64 841.89" class="st10"/></g><g id="shape44-136" transform="translate(1167.87,352.205) rotate(90)"><title>Sheet.44</title><path d="M0 841.89 L29.06 841.89" class="st10"/></g><g id="shape46-143" transform="translate(141.732,-446.457)"><title>Sheet.46</title><desc>LKL host interface</desc><path d="M0 841.89 L148.82 841.89 L148.82 827.72 L0 827.72 L0 841.89 Z" class="st12"/><text x="31.02" y="838.4" class="st2">LKL host interface</text></g><g id="shape47-146" transform="translate(141.732,-410.315)"><title>Sheet.47</title><desc>Memory</desc><rect width="84.189" height="14.173" x="0" y="827.717" class="st15"/><text x="21.21" y="838.4" class="st2">Memory</text></g><g id="shape48-149" transform="translate(229.606,-410.315)"><title>Sheet.48</title><desc>Threading</desc><rect width="84.189" height="14.173" x="0" y="827.717" class="st15"/><text x="17.56" y="838.4" class="st2">Threading</text></g><g id="shape49-152" transform="translate(141.732,-389.764)"><title>Sheet.49</title><desc>Signal handling</desc><rect width="84.189" height="14.173" x="0" y="827.717" class="st15"/><text x="5.31" y="838.4" class="st2">Signal handling</text></g><g id="shape50-155" transform="translate(229.606,-389.764)"><title>Sheet.50</title><desc>Time</desc><rect width="84.189" height="14.173" x="0" y="827.717" class="st15"/><text x="30.02" y="838.4" class="st2">Time</text></g><g id="group51-158" transform="translate(28.3465,-382.677)"><title>Sheet.51</title><g id="shape52-159" transform="translate(89.7165,0)"><title>Left Parenthesis</title><path d="M28.35 841.89 A30.251 6.6174 0 0 1 0 836.93 L0 797.24 A30.251 6.6174 0 0 1 28.35 792.28" class="st6"/></g><g id="shape53-162" transform="translate(-7.99361E-15,-19.4185)"><title>Sheet.53</title><desc>Support infrastructure</desc><rect width="88.472" height="10.769" x="0" y="831.121" class="st7"/><text x="45.51" y="832.91" class="st2">Support <tspan x="17.07" class="st8" dy="1.2em">infrastructure</tspan></text></g></g><g id="shape59-166" transform="translate(1097.01,352.205) rotate(90)"><title>Sheet.59</title><path d="M0 841.89 L29.06 841.89" class="st10"/></g><g id="shape60-173" transform="translate(1028.98,395.433) rotate(90)"><title>Sheet.60</title><path d="M0 841.89 L21.97 841.89" class="st10"/></g><g id="shape61-180" transform="translate(1111.18,395.433) rotate(90)"><title>Sheet.61</title><path d="M0 841.89 L21.97 841.89" class="st10"/></g><g id="shape68-187" transform="translate(39.685,-232.441)"><title>Sheet.68</title><desc>Confidential container launcher</desc><path d="M0 841.89 L527.24 841.89 L527.24 762.52 L0 762.52 L0 841.89 Z" class="st3"/><text x="1.66" y="839.29" class="st2">Confidential container launcher</text></g><g id="shape70-190" transform="translate(71.2913,-257.953)"><title>Sheet.70</title><desc>Signal handling</desc><rect width="84.189" height="14.173" x="0" y="827.717" class="st15"/><text x="5.31" y="838.4" class="st2">Signal handling</text></g><g id="shape71-193" transform="translate(312.973,-245.197)"><title>Sheet.71</title><desc>Virtual console device</desc><rect width="80.572" height="26.929" x="0" y="814.961" class="st15"/><text x="24" y="824.83" class="st2">Virtual <tspan x="4.46" class="st8" dy="1.2em">console device</tspan></text></g><g id="shape72-197" transform="translate(160.664,-257.953)"><title>Sheet.72</title><desc>Page permissions</desc><rect width="97.193" height="14.173" x="0" y="827.717" class="st15"/><text x="6.32" y="838.4" class="st2">Page permissions</text></g><g id="shape73-200" transform="translate(294.803,-432.283)"><title>Sheet.73</title><desc>Standard Linux VirtIO drivers</desc><path d="M0 841.89 L261.35 841.89 L261.35 807.87 L0 807.87 L0 841.89 Z" class="st5"/><text x="4" y="837.36" class="st14">Standard Linux VirtIO drivers</text></g><g id="shape78-203" transform="translate(396.83,-245.197)"><title>Sheet.78</title><desc>Virtual net device</desc><rect width="80.572" height="26.929" x="0" y="814.961" class="st15"/><text x="14.5" y="824.83" class="st2">Virtual net <tspan x="24.54" class="st8" dy="1.2em">device</tspan></text></g><g id="shape79-207" transform="translate(480.688,-245.197)"><title>Sheet.79</title><desc>Virtual block device</desc><rect width="80.572" height="26.929" x="0" y="814.961" class="st15"/><text x="9.69" y="824.83" class="st2">Virtual block <tspan x="24.54" class="st8" dy="1.2em">device</tspan></text></g><g id="shape80-211" transform="translate(1352.13,395.433) rotate(90)"><title>Sheet.80</title><path d="M0 841.89 L174.33 841.89" class="st10"/></g><g id="shape81-218" transform="translate(1267.09,395.433) rotate(90)"><title>Sheet.81</title><path d="M0 841.89 L174.33 841.89" class="st10"/></g><g id="shape82-225" transform="translate(1190.02,395.433) rotate(90)"><title>Sheet.82</title><path d="M0 841.89 L174.33 841.89" class="st10"/></g><g id="shape83-232" transform="translate(312.973,-286.299)"><title>Sheet.83</title><desc>Shared memory transport</desc><path d="M0 841.89 L248.03 841.89 L248.03 827.72 L0 827.72 L0 841.89 Z" class="st12"/><text x="60.85" y="838.4" class="st2">Shared memory transport</text></g><g id="shape85-235" transform="translate(1119.69,452.126) rotate(90)"><title>Sheet.85</title><path d="M0 841.89 L117.64 841.89" class="st10"/></g><g id="shape88-242" transform="translate(263.041,-257.953)"><title>Sheet.88</title><desc>Sleep</desc><rect width="40.847" height="14.173" x="0" y="827.717" class="st15"/><text x="7.17" y="838.4" class="st2">Sleep</text></g><g id="shape89-245" transform="translate(1062.99,431.575) rotate(90)"><title>Sheet.89</title><path d="M0 841.89 L138.19 841.89" class="st10"/></g><g id="shape90-252" transform="translate(992.309,452.126) rotate(90)"><title>Sheet.90</title><path d="M0 841.89 L117.64 841.89" class="st10"/></g><g id="shape87-259" transform="translate(68.0315,-286.299)"><title>Sheet.87</title><desc>Synchronous calls</desc><path d="M0 841.89 L234.78 841.89 L234.78 827.72 L0 827.72 L0 841.89 Z" class="st12"/><text x="74.14" y="838.4" class="st2">Synchronous calls</text></g></g></svg>